<?xml version="1.0" encoding="UTF-8"?>
<svg id="Layer_1" data-name="Layer 1" xmlns="http://www.w3.org/2000/svg" viewBox="0 0 110 110">
  <defs>
    <style>
      .cls-1 {
        fill: #7945dd;
      }
    </style>
  </defs>
  <path class="cls-1" d="M99.56,71.48c-.74-14.56-5.74-21.92-11.87-25.84,0,0,0-.02,0-.03-.49-11.63-7.2-16.94-11.22-19.1,2.22-.97,4.71-1.32,6.91-1.62,2.84-.38,5.53-.74,6.13-3.35.79-3.43.12-7.95.04-8.46-.18-1.15-1.07-2.05-2.21-2.26-.43-.08-5.22-.91-11.3-.39-.49-1.72-1.86-5.14-5.37-7.61-3.89-2.74-9.12-3.49-15.53-2.23-4.79.94-8.65,3.31-11.38,6.89-.97-2.78-3.6-4.78-6.67-4.78h-3.64c-2.02,0-3.95.87-5.29,2.37-1.35,1.51-1.98,3.54-1.74,5.55.17,1.46.31,2.87.43,4.26l-9.05,4.09c-1.38.62-1.99,2.24-1.37,3.62.46,1.01,1.45,1.61,2.49,1.61.38,0,.76-.08,1.13-.24l7.12-3.22c.16,5.61-.21,10.31-1.1,13.73-2.67-.37-7.63-1.32-10.06-2.97-1.25-.85-2.95-.52-3.8.73-.85,1.25-.52,2.95.73,3.8,1.84,1.25,4.34,2.13,6.71,2.75-2.1,1.82-5.09,4.11-7.37,4.8-1.45.44-2.27,1.96-1.83,3.41.36,1.18,1.44,1.95,2.62,1.95.26,0,.53-.04.79-.12,1.84-.56,3.78-1.67,5.55-2.9-3.14,7.44-3.42,16.81,2.26,26.91,0,0,0,.01.01.02.45.8.91,1.61,1.44,2.42,12.97,19.92,29.96,25.25,41.2,28.78,4.08,1.28,7.6,2.39,9.61,3.8,2.04,1.43,4.37,2.15,6.75,2.15,2.09,0,4.21-.55,6.22-1.66,8.85-4.88,13.58-18.66,12.66-36.86ZM81.89,42.92c-3.64-1.21-7.32-1.71-10.52-2.14-.41-.05-.8-.11-1.2-.16-.33-4.7.39-7.94,1.74-10.18.02,0,.04.03.07.04.36.11,8.18,2.63,9.92,12.45ZM84.36,15.95c.07,1.02.1,2.21,0,3.27-.51.09-1.16.18-1.7.25-5.7.76-18.57,2.49-18.04,20.04-1.33-.58-5.71-2.62-12.1-6.47,1.4-1.55,3.2-3.8,5.14-6.98,6.68-10.91,21.37-10.62,26.71-10.11ZM37.08,52.1c-6.95,4.61-10.88,9.12-13.09,12.57-4.23-12.62,2.79-21.43,5.6-24.3,0,0,.01-.01.02-.02.03-.03.07-.08.1-.11,3.82-3.83,8.66-6.12,12.31-6.12,1.25,0,2.36.27,3.24.84.49.32.97.62,1.45.92,0,0,0,0,.01,0,.52.33,1.03.65,1.54.96,0,.06-.03.11-.02.17.02.3.37,7.44-11.15,15.07ZM46.74,12.94c1.9-3.78,5.08-6.12,9.45-6.98,4.85-.95,8.64-.52,11.26,1.29,1.84,1.27,2.72,2.95,3.12,4.03-6.4,1.45-13.21,4.76-17.59,11.93-2.13,3.49-4.02,5.68-5.22,6.91-.48-.28-.98-.51-1.5-.71-.04-.25-.07-.5-.18-.73-1.48-3.11-2.07-10.32.66-15.74ZM32.25,8.71c.18-.2.57-.54,1.2-.54h3.64c.84,0,1.55.66,1.61,1.5l.73,10.1c-.23,3.29.11,6.45.86,9-2.62.28-5.39,1.23-8.11,2.76.92-6.87.43-14.99-.34-21.53-.08-.64.22-1.07.4-1.28ZM84.25,103.55c-2.51,1.38-5.06,1.32-7.19-.18-2.7-1.9-6.6-3.12-11.12-4.54-11.12-3.49-26.35-8.28-38.25-26.55-.31-.47-.54-.92-.81-1.39.76-2.01,3.38-7.22,11.49-13.04.09,3.93,1.16,9.34,5.46,14.14,6.11,6.83,7.29,10.39,7.29,10.39.34,1.21,1.44,2,2.63,2,.24,0,.49-.03.74-.1,1.45-.41,2.3-1.92,1.9-3.37-.13-.46-1.46-4.7-8.48-12.56-5.7-6.37-3.8-14.28-3.72-14.62.01-.05,0-.1,0-.16,6.33-5.33,8.47-10.46,9.16-13.69,5.88,3.33,9.45,4.81,9.65,4.89.09.04.19.07.28.1.89.25,1.85.44,2.82.61.56.74,1.49,2.11,2.43,4.08-.02.03-.05.05-.06.09-.02.04-1.58,3.75-5.28,6.96-4.93,4.27-5.71,8.9-5.79,9.41-.21,1.5.83,2.88,2.32,3.09.13.02.26.03.39.03,1.34,0,2.51-.98,2.7-2.35,0-.03.58-3.13,3.95-6.05,1.66-1.44,2.96-2.94,3.97-4.31.57,3,.76,6.52.13,10.5-2.42,15.27-.97,21.48-.79,22.14.32,1.22,1.42,2.03,2.63,2.03.22,0,.45-.03.68-.09,1.46-.37,2.34-1.85,1.98-3.31-.01-.06-1.34-5.77.9-19.92,1.49-9.4-.84-16.68-3.15-21.24,10.13,1.48,19.88,4.36,20.94,25.2.96,18.92-4.46,28.83-9.84,31.8Z"/>
</svg>