<?xml version="1.0" encoding="UTF-8"?>
<svg id="Layer_1" data-name="Layer 1" xmlns="http://www.w3.org/2000/svg" viewBox="0 0 110 110">
  <defs>
    <style>
      .cls-1 {
        fill: #fbb03b;
      }
    </style>
  </defs>
  <path class="cls-1" d="M106.85,73.34c-1.66,0-3,1.34-3,3v27.58H6.49v-4.03c0-1.66-1.34-3-3-3s-3,1.34-3,3v7.03c0,1.66,1.34,3,3,3h103.36c1.66,0,3-1.34,3-3v-30.58c0-1.66-1.34-3-3-3Z"/>
  <path class="cls-1" d="M106.85,21.19h-25.4V3.75c0-1.66-1.34-3-3-3H31.89c-1.66,0-3,1.34-3,3v17.44H3.49c-1.66,0-3,1.34-3,3v40.74c0,1.66,1.34,3,3,3s3-1.34,3-3V27.19h97.36v14.04c0,1.66,1.34,3,3,3s3-1.34,3-3v-17.04c0-1.66-1.34-3-3-3ZM34.89,21.19V6.75h40.56v14.44h-40.56Z"/>
  <path class="cls-1" d="M3.21,85.96c.61,0,1.23-.19,1.77-.58l28.23-20.64,15.08,13.75c1.1,1,2.77,1.05,3.92.1l35.86-29.35,16.91,12.02c1.35.96,3.22.64,4.18-.71.96-1.35.64-3.22-.71-4.18l-18.78-13.34c-1.1-.78-2.59-.73-3.64.12l-35.62,29.16-14.97-13.65c-1.05-.96-2.64-1.05-3.79-.21L1.44,80.54c-1.34.98-1.63,2.85-.65,4.19.59.8,1.5,1.23,2.42,1.23Z"/>
</svg>