<?xml version="1.0" encoding="UTF-8"?>
<svg id="Layer_1" data-name="Layer 1" xmlns="http://www.w3.org/2000/svg" viewBox="0 0 110 110">
  <defs>
    <style>
      .cls-1 {
        fill: #f9633b;
      }
    </style>
  </defs>
  <path class="cls-1" d="M68.69,36.37v-20.14c1.5-.34,2.88-1.09,4.03-2.21,1.54-1.56,2.39-3.62,2.39-5.79,0-4.54-3.7-8.23-8.26-8.23h-23.72c-2.18,0-4.25.85-5.85,2.41-1.54,1.56-2.39,3.63-2.39,5.81,0,3.9,2.75,7.18,6.42,8.01v14.54c0,1.48,1.21,2.69,2.7,2.69s2.7-1.2,2.7-2.69v-2.29h6.11c1.49,0,2.7-1.2,2.7-2.69s-1.21-2.69-2.7-2.69h-6.11v-6.63h6.11c1.49,0,2.7-1.2,2.7-2.69s-1.21-2.69-2.7-2.69h-8.54c-.09,0-.18-.05-.27-.05h-.88c-1.57,0-2.85-1.27-2.85-2.84,0-.77.3-1.49.81-2.01.55-.54,1.28-.84,2.04-.84h23.72c1.58,0,2.86,1.28,2.86,2.85,0,.76-.3,1.48-.81,2-.55.54-1.28.84-2.05.84h-.86c-1.49,0-2.7,1.2-2.7,2.69v24.52c0,1.16.75,2.2,1.86,2.55,7.3,2.36,13.29,7.08,17.28,13.15-8.89-.5-17.12.68-24.5,3.57-3.04,1.19-5.45,2.46-7.78,3.69-3.81,2.01-7.1,3.74-12.06,4.41-4.78.62-9.79,0-14.91-1.69,1.33-5.25,3.96-10.05,7.62-14.03,5.02-4.96,8.45-5.4,12.04-5.11,5.72.47,14.15,6.89,17.37,4.41,3.22-2.48-4.14-7.94-4.14-7.94,0,0-8.25-7.88-18.95-2.92-.12.04-.24.05-.35.11-.34.18-.67.39-1,.59-.14.08-.28.13-.43.22h.04c-11.52,6.87-18.63,19.22-18.63,32.67,0,20.99,17.15,38.07,38.23,38.07s38.21-17.08,38.21-38.07c0-15.9-9.78-29.95-24.53-35.56ZM55.01,104.63c-18.11,0-32.84-14.67-32.84-32.7,0-.87.11-1.71.18-2.57,4.02,1.25,8,1.9,11.89,1.9,1.54,0,3.07-.1,4.59-.3,5.92-.79,9.78-2.83,13.87-4.98,2.2-1.16,4.47-2.36,7.23-3.44,7.54-2.95,16.11-3.92,25.5-2.94,1.56,3.83,2.41,7.99,2.41,12.32,0,18.03-14.72,32.7-32.82,32.7Z"/>
</svg>