<?xml version="1.0" encoding="UTF-8"?>
<svg id="Layer_1" data-name="Layer 1" xmlns="http://www.w3.org/2000/svg" viewBox="0 0 110 110">
  <defs>
    <style>
      .cls-1 {
        fill: #4dcec8;
      }
    </style>
  </defs>
  <path class="cls-1" d="M106.91,103.85h-3.57V36.7c0-1.66-1.34-3-3-3h-18.22c-1.66,0-3,1.34-3,3v67.15h-12.09v-48.88c0-1.66-1.34-3-3-3h-18.21c-1.66,0-3,1.34-3,3v48.88h-12.21v-57.2c0-1.66-1.34-3-3-3H9.37c-1.66,0-3,1.34-3,3v57.2h-3.28c-1.66,0-3,1.34-3,3s1.34,3,3,3h103.82c1.66,0,3-1.34,3-3s-1.34-3-3-3ZM12.37,103.85v-54.2h12.22v54.2h-12.22ZM48.8,103.85v-45.88h12.21v45.88h-12.21ZM85.11,103.85V39.7h12.22v64.15h-12.22Z"/>
  <path class="cls-1" d="M8.55,33.3c.83.24,9.57,2.61,22.71,2.61,17.13,0,41.75-4.05,66.08-22.16v6.1c0,1.66,1.34,3,3,3s3-1.34,3-3V7.59c0-.13-.02-.26-.04-.39,0-.04,0-.08,0-.13,0-.01,0-.02-.01-.04-.04-.24-.12-.46-.21-.68-.02-.05-.05-.09-.08-.14-.09-.17-.18-.32-.3-.47-.04-.05-.08-.11-.13-.16-.13-.15-.28-.28-.44-.4-.03-.02-.05-.05-.08-.07-.19-.13-.41-.24-.63-.33-.02,0-.03-.02-.05-.03l-11.68-4.22c-1.56-.56-3.28.24-3.84,1.8s.24,3.28,1.8,3.84l6.6,2.39C53.46,39.19,10.63,27.65,10.19,27.53c-1.59-.45-3.25.47-3.7,2.07-.45,1.59.47,3.25,2.07,3.71Z"/>
</svg>