<?xml version="1.0" encoding="UTF-8"?>
<svg id="Layer_1" data-name="Layer 1" xmlns="http://www.w3.org/2000/svg" viewBox="0 0 110 110">
  <defs>
    <style>
      .cls-1 {
        fill: #db467f;
      }
    </style>
  </defs>
  <path class="cls-1" d="M33.89,63.52h-9.84c-.42,1.01-.77,1.9-1.07,2.67-.29.77-.53,1.44-.72,2.01-.18.57-.31,1.04-.39,1.44-.07.39-.11.71-.11.96,0,.69.22,1.16.66,1.42.44.26,1.18.39,2.21.39v1.4h-8.96v-1.4c.56-.07,1.05-.17,1.46-.29.4-.12.76-.29,1.07-.52.31-.22.58-.51.81-.87.23-.36.46-.79.68-1.31l9.58-23.99h1.59l8.37,20.78c.57,1.38,1.06,2.48,1.47,3.3.42.82.82,1.44,1.22,1.86.39.42.82.69,1.27.81.45.12,1,.18,1.64.18v1.44h-12.02v-1.44c1.3,0,2.2-.12,2.69-.37.49-.24.74-.65.74-1.22,0-.24-.01-.47-.04-.68-.02-.21-.07-.44-.13-.68-.06-.25-.15-.52-.26-.83-.11-.31-.25-.67-.42-1.09l-1.51-3.98ZM24.78,61.68h8.4l-4.09-10.87-4.31,10.87Z"/>
  <path class="cls-1" d="M55,105.41c-.97,0-1.89-.47-2.45-1.27l-2.19-3.09c-2.59-3.67-6.82-5.86-11.31-5.86H3.04c-1.66,0-3-1.34-3-3V17.82c0-1.66,1.34-3,3-3h36.01c6.29,0,12.22,2.99,15.95,8.03,3.73-5.04,9.66-8.03,15.95-8.03h36.01c1.66,0,3,1.34,3,3v74.37c0,1.66-1.34,3-3,3h-36.01c-4.49,0-8.72,2.19-11.31,5.86l-2.19,3.09c-.56.8-1.48,1.27-2.45,1.27ZM6.04,89.18h33.01c6.29,0,12.22,2.99,15.95,8.03,3.73-5.04,9.66-8.03,15.95-8.03h33.01V20.82h-33.01c-4.49,0-8.72,2.19-11.31,5.86l-2.19,3.09c-.56.8-1.48,1.27-2.45,1.27s-1.89-.47-2.45-1.27l-2.19-3.09c-2.59-3.67-6.82-5.86-11.31-5.86H6.04v68.37Z"/>
  <g>
    <path class="cls-1" d="M81.95,51.4h-28.44c-1.66,0-3-1.34-3-3s1.34-3,3-3h28.44c1.66,0,3,1.34,3,3s-1.34,3-3,3Z"/>
    <path class="cls-1" d="M91.58,62.62h-38.07c-1.66,0-3-1.34-3-3s1.34-3,3-3h38.07c1.66,0,3,1.34,3,3s-1.34,3-3,3Z"/>
    <path class="cls-1" d="M86.4,73.84h-32.89c-1.66,0-3-1.34-3-3s1.34-3,3-3h32.89c1.66,0,3,1.34,3,3s-1.34,3-3,3Z"/>
  </g>
</svg>