<?xml version="1.0" encoding="UTF-8"?>
<svg id="Layer_1" data-name="Layer 1" xmlns="http://www.w3.org/2000/svg" viewBox="0 0 110 110">
  <defs>
    <style>
      .cls-1 {
        fill: #db467f;
      }
    </style>
  </defs>
  <path class="cls-1" d="M31.16,105.08c-.33,0-.67-.06-.99-.2-.96-.4-1.59-1.34-1.59-2.38v-19.25C12.18,77.9.89,62.48.89,45.09c0-10.72,4.17-20.8,11.75-28.4,7.59-7.59,17.68-11.77,28.41-11.77h29.67c22.15,0,40.17,18.02,40.17,40.17,0,10.71-4.17,20.79-11.75,28.38-7.6,7.59-17.69,11.77-28.41,11.77h-18.63l-19.11,19.09c-.49.49-1.15.75-1.82.75ZM41.06,10.07c-9.35,0-18.15,3.64-24.77,10.26-6.61,6.62-10.24,15.41-10.24,24.76,0,15.74,10.6,29.63,25.79,33.77,1.12.31,1.9,1.32,1.9,2.49v14.95l15.47-15.45c.48-.48,1.14-.75,1.82-.75h19.7c9.35,0,18.15-3.64,24.77-10.26,6.6-6.62,10.24-15.41,10.24-24.74,0-19.31-15.71-35.02-35.01-35.02h-29.67Z"/>
  <path class="cls-1" d="M38.4,47.15h-11.34c-.48,1.16-.89,2.19-1.23,3.08-.34.89-.62,1.66-.83,2.31-.21.65-.36,1.2-.45,1.66-.09.45-.13.82-.13,1.1,0,.79.25,1.34.76,1.63.51.3,1.36.45,2.55.45v1.61h-10.32v-1.61c.65-.08,1.21-.2,1.68-.34.47-.14.88-.34,1.23-.59.35-.26.67-.59.93-1,.27-.41.53-.91.79-1.51l11.05-27.65h1.83l9.64,23.95c.65,1.59,1.22,2.85,1.7,3.8.48.95.95,1.66,1.4,2.14.45.48.94.79,1.47.93.52.14,1.15.21,1.89.21v1.66h-13.85v-1.66c1.5,0,2.53-.14,3.1-.42.57-.28.85-.75.85-1.4,0-.28-.01-.54-.04-.79-.03-.24-.08-.5-.15-.79-.07-.28-.17-.6-.3-.96-.13-.35-.29-.77-.49-1.25l-1.74-4.59ZM27.91,45.02h9.69l-4.72-12.53-4.97,12.53Z"/>
  <path class="cls-1" d="M80.85,30.12h-20.53c-1.42,0-2.58-1.15-2.58-2.58s1.15-2.58,2.58-2.58h20.53c1.42,0,2.58,1.15,2.58,2.58s-1.15,2.58-2.58,2.58Z"/>
  <path class="cls-1" d="M93.16,45.22h-32.85c-1.42,0-2.58-1.15-2.58-2.58s1.15-2.58,2.58-2.58h32.85c1.42,0,2.58,1.15,2.58,2.58s-1.15,2.58-2.58,2.58Z"/>
  <path class="cls-1" d="M86.53,60.32h-26.21c-1.42,0-2.58-1.15-2.58-2.58s1.15-2.58,2.58-2.58h26.21c1.42,0,2.58,1.15,2.58,2.58s-1.15,2.58-2.58,2.58Z"/>
</svg>