<?xml version="1.0" encoding="UTF-8"?>
<svg id="ELEMENTS" xmlns="http://www.w3.org/2000/svg" viewBox="0 0 500 500">
  <defs>
    <style>
      .cls-1 {
        fill: #fff;
      }

      .cls-2 {
        fill: #f9633b;
      }
    </style>
  </defs>
  <circle class="cls-2" cx="250" cy="250" r="250"/>
  <g>
    <path class="cls-1" d="M318.89,166.36c-8.42,0-15.25,6.83-15.25,15.25s6.83,15.26,15.25,15.26,15.26-6.83,15.26-15.26-6.83-15.25-15.26-15.25Z"/>
    <path class="cls-1" d="M251.07,185.92c-35.33,0-64.08,28.74-64.08,64.08s28.75,64.08,64.08,64.08,64.08-28.75,64.08-64.08-28.75-64.08-64.08-64.08ZM251.07,291.05c-22.63,0-41.05-18.41-41.05-41.05s18.41-41.05,41.05-41.05,41.04,18.41,41.04,41.05-18.41,41.05-41.04,41.05Z"/>
    <path class="cls-1" d="M301.94,380.1h-103.88c-43.1,0-78.16-35.06-78.16-78.16v-103.89c0-43.1,35.06-78.16,78.16-78.16h103.88c43.1,0,78.16,35.06,78.16,78.16v103.89c0,43.1-35.06,78.16-78.16,78.16ZM198.06,144.38c-29.6,0-53.68,24.08-53.68,53.68v103.89c0,29.6,24.08,53.68,53.68,53.68h103.88c29.6,0,53.68-24.08,53.68-53.68v-103.89c0-29.6-24.08-53.68-53.68-53.68h-103.88Z"/>
  </g>
</svg>