<?xml version="1.0" encoding="UTF-8"?>
<svg id="Layer_1" data-name="Layer 1" xmlns="http://www.w3.org/2000/svg" viewBox="0 0 110 110">
  <defs>
    <style>
      .cls-1 {
        fill: #8cc63f;
      }
    </style>
  </defs>
  <path class="cls-1" d="M104.14,90.99c-2.19-34.39-27.78-43.19-36.21-46.09l-.57-.2c-6.57-2.27-8.89-8.42-9.36-9.89v-4.78c3.38-.45,6.5-1.96,8.95-4.41,1.36-1.36,2.43-2.92,3.2-4.65.67-1.51-.01-3.29-1.53-3.96-1.51-.67-3.29.01-3.96,1.53-.46,1.05-1.12,2-1.96,2.84-1.81,1.81-4.22,2.81-6.78,2.81h0c-2.56,0-4.97-1-6.78-2.81-1.81-1.81-2.81-4.22-2.81-6.78s1-4.97,2.81-6.78c.83-.83,1.79-1.49,2.84-1.97,1.51-.68,2.19-2.45,1.51-3.96-.68-1.51-2.45-2.19-3.96-1.51-1.72.77-3.28,1.85-4.63,3.2-2.95,2.95-4.57,6.86-4.57,11.02s1.62,8.08,4.57,11.02c1.99,1.99,4.44,3.36,7.1,4.05v5.14c-.47,1.47-2.8,7.62-9.36,9.89l-.57.19c-8.46,2.91-34,11.71-36.19,46.09-3.41,1.62-5.79,5.1-5.79,9.12,0,5.57,4.53,10.11,10.11,10.11h89.63c5.57,0,10.11-4.53,10.11-10.11,0-4.03-2.38-7.51-5.8-9.13ZM44.02,50.57l.58-.2c5.11-1.77,8.38-5.16,10.4-8.2,2.02,3.05,5.29,6.43,10.4,8.2l.58.2c8.15,2.8,29.56,10.18,32.06,39.44H11.96c2.5-29.26,23.88-36.62,32.06-39.44ZM99.83,104.22H10.2c-2.26,0-4.11-1.84-4.11-4.11s1.84-4.11,4.11-4.11h89.63c2.26,0,4.11,1.84,4.11,4.11s-1.84,4.11-4.11,4.11Z"/>
  <path class="cls-1" d="M39.7,65.26c.56,0,1.13-.15,1.64-.47,1.4-.89,1.79-2.72.91-4.12-.88-1.4-2.75-1.81-4.15-.93,0,0-.05.03-.06.03-1.4.89-1.78,2.72-.89,4.12.57.89,1.54,1.38,2.54,1.38Z"/>
  <path class="cls-1" d="M23.83,85.89c.08,0,.16,0,.24,0,1.54,0,2.85-1.19,2.99-2.75,0-.06.55-5.62,6.28-11.84,1.12-1.22,1.05-3.12-.17-4.24-1.22-1.12-3.12-1.05-4.24.17-7.25,7.86-7.84,15.16-7.86,15.46-.11,1.64,1.12,3.06,2.76,3.18Z"/>
</svg>