<?xml version="1.0" encoding="UTF-8"?>
<svg id="Layer_1" xmlns="http://www.w3.org/2000/svg" viewBox="0 0 2750 800">
  <defs>
    <style>
      .cls-1 {
        fill: #f9633b;
      }
    </style>
  </defs>
  <g>
    <path class="cls-1" d="M1053.03,122.45c9.64-2.41,22.36-4.97,38.18-7.68,15.82-2.71,34.12-4.07,54.9-4.07,15.06,0,27.71,2.03,37.95,6.1,10.24,4.07,18.83,10.02,25.75,17.85,2.11-1.51,5.43-3.62,9.95-6.33,4.52-2.71,10.09-5.34,16.72-7.91,6.62-2.56,14-4.82,22.14-6.78,8.13-1.96,16.87-2.94,26.2-2.94,18.08,0,32.83,2.64,44.29,7.91,11.44,5.27,20.4,12.73,26.88,22.37,6.47,9.64,10.84,21.09,13.1,34.34,2.26,13.26,3.39,27.72,3.39,43.38v131.94h-42.02v-122.9c0-13.85-.68-25.75-2.03-35.69-1.36-9.94-3.92-18.22-7.68-24.85-3.77-6.62-8.89-11.52-15.36-14.68-6.49-3.16-14.84-4.75-25.08-4.75-14.16,0-25.83,1.88-35.01,5.65-9.2,3.77-15.44,7.16-18.76,10.17,2.41,7.84,4.22,16.42,5.42,25.75,1.2,9.34,1.81,19.14,1.81,29.37v131.94h-42.02v-122.9c0-13.85-.76-25.75-2.26-35.69-1.51-9.94-4.14-18.22-7.91-24.85-3.77-6.62-8.89-11.52-15.36-14.68-6.48-3.16-14.69-4.75-24.63-4.75-4.22,0-8.74.16-13.55.45-4.83.3-9.42.68-13.78,1.13-4.37.45-8.36.98-11.97,1.58-3.62.61-6.03,1.06-7.24,1.36v198.36h-42.02V122.45Z"/>
    <path class="cls-1" d="M1395.07,394.46c3.31,1.51,7.61,2.94,12.88,4.29,5.27,1.36,10.46,2.03,15.59,2.03,16.56,0,29.51-3.69,38.86-11.07,9.33-7.39,17.77-19.36,25.3-35.92-18.97-36.15-36.67-74.48-53.09-114.99-16.42-40.51-30.05-81.56-40.89-123.13h45.18c3.31,13.55,7.3,28.17,11.98,43.83,4.66,15.66,9.86,31.78,15.58,48.35,5.72,16.57,11.9,33.14,18.53,49.7,6.63,16.57,13.56,32.53,20.79,47.9,11.44-31.63,21.38-62.96,29.82-93.98,8.43-31.02,16.41-62.96,23.95-95.79h43.38c-10.84,44.28-22.9,86.83-36.15,127.64-13.26,40.82-27.56,79-42.93,114.54-6.02,13.56-12.28,25.23-18.75,35.02-6.48,9.78-13.63,17.85-21.46,24.17-7.84,6.32-16.65,10.99-26.43,14-9.79,3.01-20.86,4.52-33.21,4.52-3.32,0-6.77-.23-10.39-.68-3.61-.45-7.16-1.06-10.62-1.81-3.46-.76-6.63-1.58-9.48-2.49-2.87-.9-4.9-1.66-6.1-2.26l7.68-33.89Z"/>
    <path class="cls-1" d="M1699.61,302.28c12.35,0,21.08-1.2,26.21-3.61,5.12-2.41,7.68-7.07,7.68-14.01,0-5.42-3.32-10.17-9.94-14.23-6.63-4.07-16.72-8.65-30.28-13.78-10.55-3.91-20.11-7.98-28.69-12.2-8.59-4.21-15.89-9.26-21.92-15.14-6.03-5.87-10.7-12.88-14.01-21.01-3.32-8.13-4.97-17.92-4.97-29.37,0-22.29,8.29-39.91,24.86-52.87,16.56-12.95,39.31-19.43,68.23-19.43,14.46,0,28.31,1.29,41.57,3.84,13.25,2.56,23.79,5.35,31.63,8.36l-11.75,52.41c-7.83-2.71-16.34-5.12-25.52-7.23-9.2-2.1-19.51-3.16-30.96-3.16-21.08,0-31.62,5.87-31.62,17.62,0,2.71.45,5.12,1.35,7.23.9,2.11,2.71,4.15,5.42,6.1,2.71,1.96,6.4,4.08,11.07,6.35,4.66,2.28,10.62,4.79,17.85,7.51,14.76,5.47,26.96,10.87,36.6,16.18,9.63,5.32,17.24,11.06,22.81,17.21,5.58,6.16,9.49,13.01,11.75,20.52,2.26,7.51,3.39,16.23,3.39,26.14,0,23.45-8.81,41.18-26.43,53.2-17.62,12.02-42.56,18.03-74.78,18.03-21.09,0-38.63-1.81-52.64-5.42-14.01-3.61-23.72-6.62-29.14-9.04l11.3-54.67c11.44,4.52,23.19,8.06,35.24,10.62,12.05,2.56,23.95,3.84,35.69,3.84Z"/>
    <path class="cls-1" d="M1836.97,53.77l67.32-10.84v70.03h80.88v56.03h-80.88v83.59c0,14.16,2.49,25.46,7.46,33.89,4.97,8.44,14.98,12.65,30.05,12.65,7.23,0,14.68-.68,22.36-2.03,7.68-1.36,14.69-3.24,21.01-5.65l9.49,52.41c-8.13,3.32-17.17,6.18-27.11,8.58-9.94,2.41-22.14,3.61-36.6,3.61-18.38,0-33.6-2.48-45.64-7.46-12.05-4.97-21.69-11.9-28.92-20.78-7.23-8.88-12.28-19.65-15.14-32.31-2.86-12.65-4.29-26.66-4.29-42.02V53.77Z"/>
    <path class="cls-1" d="M2231.43,342.5c-11.45,3.32-26.21,6.4-44.28,9.26-18.08,2.86-37.05,4.29-56.94,4.29s-36.98-2.71-50.38-8.13c-13.41-5.42-24.02-13.03-31.85-22.82-7.84-9.78-13.41-21.46-16.72-35.02-3.32-13.56-4.97-28.47-4.97-44.73V112.96h67.32v124.26c0,21.69,2.86,37.36,8.59,46.99,5.72,9.64,16.41,14.46,32.08,14.46,4.81,0,9.94-.22,15.36-.68,5.42-.45,10.24-.98,14.46-1.58V112.96h67.32v229.54Z"/>
    <path class="cls-1" d="M2493.05,342.95c-6.03,1.81-12.96,3.54-20.79,5.19-7.84,1.66-16.04,3.09-24.63,4.29-8.59,1.2-17.32,2.18-26.2,2.94-8.9.75-17.4,1.13-25.53,1.13-19.59,0-37.05-2.86-52.42-8.58-15.36-5.72-28.32-13.93-38.86-24.63-10.55-10.69-18.6-23.65-24.17-38.86-5.58-15.21-8.36-32.31-8.36-51.28s2.41-36.67,7.23-52.19c4.82-15.51,11.75-28.69,20.79-39.53,9.04-10.85,20.11-19.12,33.21-24.85,13.1-5.72,28.08-8.59,44.96-8.59,9.33,0,17.69.9,25.07,2.71,7.38,1.81,14.83,4.37,22.36,7.68V10.85L2493.05,0v342.95ZM2340.78,229.99c0,20.78,4.66,37.5,14.01,50.15,9.34,12.65,23.19,18.98,41.57,18.98,6.02,0,11.59-.22,16.72-.68,5.12-.45,9.34-.97,12.65-1.58v-122.45c-4.22-2.71-9.71-4.97-16.49-6.78-6.78-1.81-13.64-2.71-20.56-2.71-31.93,0-47.89,21.69-47.89,65.07Z"/>
    <path class="cls-1" d="M2749.25,112.96c-13.59,45.79-27.78,88.72-42.58,128.78-14.79,40.07-30.96,78.92-48.47,116.58-6.35,13.56-12.68,25.08-19.01,34.57-6.34,9.49-13.28,17.32-20.82,23.5-7.54,6.17-16.06,10.69-25.56,13.56-9.5,2.86-20.58,4.29-33.25,4.29-10.56,0-20.3-.98-29.19-2.93-8.9-1.96-16.21-4.15-21.94-6.55l11.75-53.77c6.93,2.41,13.11,4.07,18.53,4.97,5.42.9,11.16,1.36,17.19,1.36,12.05,0,21.31-3.24,27.79-9.71,6.48-6.48,11.98-15.44,16.51-26.88-15.38-30.12-30.75-63.93-46.11-101.44-15.37-37.5-29.84-79.6-43.4-126.29h71.39c3.03,11.75,6.58,24.48,10.67,38.18,4.08,13.71,8.4,27.56,12.94,41.57,4.53,14.01,9.15,27.64,13.84,40.89,4.69,13.26,9.15,25.3,13.39,36.15,3.92-10.85,8.01-22.89,12.25-36.15,4.24-13.25,8.39-26.88,12.47-40.89,4.08-14.01,8.01-27.86,11.79-41.57,3.78-13.7,7.18-26.43,10.21-38.18h69.62Z"/>
    <path class="cls-1" d="M1107.7,686.14c17.17,0,29.89-2.26,38.18-6.78,8.28-4.52,12.43-11.75,12.43-21.69s-4.07-18.37-12.2-24.4c-8.13-6.02-21.54-12.8-40.21-20.33-9.04-3.62-17.7-7.3-25.98-11.07-8.29-3.76-15.44-8.2-21.46-13.33-6.03-5.12-10.84-11.29-14.46-18.53-3.61-7.23-5.42-16.11-5.42-26.66,0-20.78,7.68-37.28,23.04-49.48,15.37-12.2,36.3-18.3,62.81-18.3,6.62,0,13.25.38,19.88,1.13,6.63.75,12.8,1.66,18.53,2.71,5.72,1.06,10.77,2.19,15.14,3.39,4.36,1.2,7.75,2.26,10.17,3.16l-7.68,36.15c-4.52-2.41-11.6-4.89-21.24-7.46-9.64-2.56-21.24-3.84-34.79-3.84-11.75,0-21.99,2.34-30.73,7-8.74,4.68-13.1,11.97-13.1,21.92,0,5.12.97,9.64,2.93,13.55,1.95,3.92,4.97,7.46,9.04,10.62,4.06,3.17,9.11,6.1,15.14,8.81,6.02,2.71,13.25,5.58,21.68,8.59,11.14,4.22,21.08,8.36,29.82,12.43,8.73,4.07,16.19,8.81,22.36,14.23,6.17,5.42,10.92,11.97,14.24,19.66,3.31,7.68,4.97,17.1,4.97,28.24,0,21.69-8.06,38.11-24.17,49.25-16.12,11.15-39.09,16.72-68.91,16.72-20.79,0-37.05-1.74-48.8-5.19-11.75-3.46-19.73-6.1-23.95-7.91l7.68-36.15c4.81,1.81,12.5,4.52,23.04,8.13,10.54,3.61,24.55,5.42,42.02,5.42Z"/>
    <path class="cls-1" d="M1450.2,599.38c0,17.78-2.34,34.19-7,49.25-4.68,15.07-11.52,28.02-20.56,38.86-9.04,10.85-20.1,19.28-33.21,25.31-13.1,6.02-28.09,9.04-44.96,9.04-13.55,0-25.53-1.81-35.92-5.42-10.39-3.61-18.15-7.07-23.27-10.39v93.98h-42.02v-311.32c9.94-2.41,22.37-5.04,37.28-7.91,14.91-2.86,32.16-4.29,51.74-4.29,18.08,0,34.34,2.87,48.8,8.59,14.46,5.73,26.81,13.86,37.05,24.4,10.24,10.55,18.15,23.42,23.72,38.63,5.58,15.21,8.36,32.31,8.36,51.28ZM1406.37,599.38c0-27.41-6.78-48.5-20.33-63.26-13.55-14.75-31.63-22.14-54.22-22.14-12.66,0-22.52.45-29.6,1.36-7.08.9-12.73,1.96-16.94,3.16v148.21c5.12,4.22,12.5,8.29,22.14,12.2,9.64,3.92,20.18,5.87,31.63,5.87,12.04,0,22.36-2.18,30.95-6.55,8.59-4.36,15.58-10.39,21.01-18.07,5.42-7.68,9.33-16.72,11.75-27.11,2.41-10.39,3.61-21.61,3.61-33.66Z"/>
    <path class="cls-1" d="M1574,475.58c16.87,0,31.1,2.19,42.7,6.55,11.59,4.37,20.93,10.55,28.01,18.53,7.07,7.98,12.12,17.48,15.14,28.47,3,11,4.52,23.12,4.52,36.37v146.85c-3.61.61-8.66,1.43-15.14,2.48-6.48,1.06-13.78,2.03-21.91,2.94-8.14.9-16.95,1.73-26.43,2.49-9.49.75-18.91,1.13-28.24,1.13-13.26,0-25.46-1.36-36.6-4.07-11.14-2.71-20.78-7-28.92-12.88-8.13-5.87-14.46-13.63-18.97-23.27-4.52-9.64-6.78-21.24-6.78-34.79s2.63-24.09,7.91-33.43c5.27-9.34,12.43-16.87,21.47-22.59,9.04-5.72,19.58-9.94,31.62-12.65,12.05-2.71,24.7-4.07,37.95-4.07,4.22,0,8.59.23,13.1.68,4.52.45,8.81,1.06,12.88,1.81,4.06.76,7.6,1.43,10.62,2.03,3,.61,5.12,1.06,6.32,1.36v-11.75c0-6.93-.76-13.78-2.26-20.56-1.51-6.78-4.22-12.8-8.13-18.07-3.92-5.27-9.26-9.49-16.04-12.65-6.78-3.16-15.59-4.75-26.43-4.75-13.86,0-25.98.98-36.37,2.94-10.39,1.96-18.15,4-23.27,6.1l-4.97-34.79c5.42-2.41,14.46-4.75,27.11-7,12.65-2.26,26.35-3.39,41.11-3.39ZM1577.61,686.14c9.95,0,18.76-.22,26.43-.68,7.68-.45,14.08-1.28,19.21-2.49v-70.03c-3.01-1.51-7.91-2.78-14.69-3.84-6.77-1.05-14.99-1.58-24.63-1.58-6.32,0-13.03.45-20.1,1.36-7.08.9-13.56,2.79-19.43,5.65-5.88,2.87-10.78,6.78-14.69,11.75-3.92,4.97-5.88,11.52-5.88,19.65,0,15.07,4.82,25.53,14.46,31.4,9.64,5.88,22.74,8.81,39.31,8.81Z"/>
    <path class="cls-1" d="M1824.77,721.83c-18.97,0-35.62-3.02-49.92-9.04-14.31-6.02-26.36-14.46-36.15-25.31-9.79-10.84-17.1-23.72-21.92-38.63-4.82-14.91-7.23-31.4-7.23-49.48s2.63-34.64,7.91-49.7c5.27-15.06,12.72-28.09,22.36-39.08,9.64-10.99,21.46-19.58,35.47-25.76,14.01-6.17,29.6-9.26,46.77-9.26,10.54,0,21.08.9,31.63,2.71,10.54,1.81,20.63,4.68,30.27,8.59l-9.48,35.7c-6.32-3.01-13.64-5.42-21.92-7.23-8.29-1.81-17.1-2.71-26.43-2.71-23.5,0-41.5,7.39-53.99,22.14-12.5,14.76-18.75,36.31-18.75,64.62,0,12.65,1.42,24.25,4.29,34.79,2.86,10.55,7.38,19.58,13.56,27.11,6.17,7.53,14.08,13.33,23.72,17.39,9.64,4.07,21.38,6.1,35.24,6.1,11.14,0,21.24-1.05,30.27-3.16,9.04-2.1,16.11-4.36,21.24-6.78l5.88,35.24c-2.42,1.51-5.88,2.93-10.39,4.29-4.52,1.36-9.64,2.56-15.37,3.62-5.72,1.05-11.82,1.95-18.29,2.71-6.49.75-12.73,1.13-18.76,1.13Z"/>
    <path class="cls-1" d="M1908.36,599.38c0-20.78,3-38.93,9.04-54.45,6.02-15.51,14.01-28.39,23.95-38.63,9.95-10.24,21.38-17.92,34.34-23.04,12.95-5.12,26.21-7.68,39.76-7.68,31.63,0,55.88,9.87,72.75,29.6,16.87,19.73,25.3,49.78,25.3,90.15v7c0,2.87-.15,5.5-.45,7.91h-160.85c1.81,24.4,8.88,42.93,21.24,55.58,12.35,12.65,31.62,18.98,57.83,18.98,14.76,0,27.18-1.28,37.28-3.84,10.09-2.56,17.69-5.04,22.82-7.46l5.88,35.24c-5.13,2.71-14.09,5.58-26.89,8.58-12.8,3.01-27.34,4.52-43.6,4.52-20.49,0-38.18-3.09-53.09-9.26s-27.19-14.68-36.83-25.53c-9.64-10.84-16.8-23.72-21.46-38.63-4.67-14.91-7-31.25-7-49.02ZM2069.67,576.34c.29-18.98-4.45-34.57-14.23-46.77-9.8-12.2-23.27-18.3-40.44-18.3-9.64,0-18.15,1.88-25.53,5.65-7.39,3.77-13.64,8.66-18.75,14.68-5.13,6.03-9.12,12.96-11.98,20.78-2.86,7.84-4.74,15.82-5.65,23.95h116.58Z"/>
  </g>
  <path class="cls-1" d="M37.24,342.37c.1-.1.22-.2.35-.3,20.78-16.76,49.85-17.78,71.66-3.2,1.6,1.05,3.12,2.17,4.62,3.4l36.17,29.45,39.19,31.54,193.37,155.73c72.66-105.33,152.65-173.09,217.52-215.47,3.42-2.25,6.79-4.4,10.12-6.49h.02c9.54-6.02,18.71-11.46,27.45-16.36,5.34-3,10.51-5.82,15.49-8.44,45.33-23.9,75.25-32.37,76.43-32.69l.03-.03C468.2,174.63,383.91,2.72,382.61.03L382.59,0l-202.83,163.37-141.79,114.19c-.4.32-.8.65-1.2.97-.4.35-.77.67-1.17,1.02-17.68,15.11-28.77,34.79-33.27,55.65v.03c-1.55,7.12-2.32,14.39-2.32,21.65v120.69c0,22.68,10.29,44.16,27.95,58.37l307.66,247.51c27.42,22.08,66.54,22.05,93.96-.03l266.7-214.77c17.63-14.21,27.9-35.62,27.92-58.24l.15-95.46-.05.03c-.15-15.76-7.24-30.42-19.51-40.31l-43.18-34.77c-11.94,4.57-22.15,10.39-29.25,14.94l53.62,43.18c5.32,4.3,8.37,10.66,8.37,17.51s-3.05,13.21-8.37,17.51l-263.82,212.45c-21.78,17.56-53.4,17.56-75.2,0L37.94,396.62c-17.21-13.86-17.83-40.29-.7-54.25Z"/>
</svg>