<?xml version="1.0" encoding="UTF-8"?>
<svg id="Layer_1" xmlns="http://www.w3.org/2000/svg" viewBox="0 0 730 800">
  <defs>
    <style>
      .cls-1 {
        fill: #f9633b;
      }
    </style>
  </defs>
  <path class="cls-1" d="M37.42,342.37c.1-.1.22-.2.35-.3,20.78-16.76,49.85-17.78,71.66-3.2,1.6,1.05,3.12,2.17,4.62,3.4l36.17,29.45,39.19,31.54,193.37,155.73c72.66-105.33,152.65-173.09,217.52-215.47,3.42-2.25,6.79-4.4,10.12-6.49h.02c9.54-6.02,18.71-11.46,27.45-16.36,5.34-3,10.51-5.82,15.49-8.44,45.33-23.9,75.25-32.37,76.43-32.69l.03-.03C468.39,174.63,384.09,2.72,382.8.03L382.77,0l-202.83,163.37-141.79,114.19c-.4.32-.8.65-1.2.97-.4.35-.77.67-1.17,1.02-17.68,15.11-28.77,34.79-33.27,55.65v.03c-1.55,7.12-2.32,14.39-2.32,21.65v120.69c0,22.68,10.29,44.16,27.95,58.37l307.66,247.51c27.42,22.08,66.54,22.05,93.96-.03l266.7-214.77c17.63-14.21,27.9-35.62,27.92-58.24l.15-95.46-.05.03c-.15-15.76-7.24-30.42-19.51-40.31l-43.18-34.77c-11.94,4.57-22.15,10.39-29.25,14.94l53.62,43.18c5.32,4.3,8.37,10.66,8.37,17.51s-3.05,13.21-8.37,17.51l-263.82,212.45c-21.78,17.56-53.4,17.56-75.2,0L38.12,396.62c-17.21-13.86-17.83-40.29-.7-54.25Z"/>
</svg>