<?xml version="1.0" encoding="UTF-8"?>
<svg id="Layer_1" data-name="Layer 1" xmlns="http://www.w3.org/2000/svg" viewBox="0 0 110 110">
  <defs>
    <style>
      .cls-1 {
        fill: #22b573;
      }
    </style>
  </defs>
  <path class="cls-1" d="M109.15,104.72L4.96.85C4.13.02,2.88-.23,1.79.22.71.67,0,1.72,0,2.89v94.24c0,5.17,3.4,9.74,8.38,11.21,2.79.83,6.49,1.43,11.46,1.55l.08.04s9.85.82,9.02-3.48-12.22-5.1-17.18-8.79c-2.37-1.76-4.38-3.78-5.42-8h8.87c1.6,0,2.9-1.3,2.9-2.89s-1.3-2.89-2.9-2.89H5.81v-12.22h9.43c1.6,0,2.9-1.3,2.9-2.89s-1.3-2.89-2.9-2.89H5.81v-12.22h9.43c1.6,0,2.9-1.3,2.9-2.89s-1.3-2.89-2.9-2.89H5.81v-12.22h9.43c1.6,0,2.9-1.3,2.9-2.89s-1.3-2.89-2.9-2.89H5.81V9.88l94.28,93.99h-58.04c-1.6,0-2.9,1.3-2.9,2.89s1.3,2.89,2.9,2.89h0s65.05,0,65.05,0c1.17,0,2.23-.71,2.68-1.79.45-1.08.2-2.33-.63-3.15Z"/>
  <path class="cls-1" d="M57.68,86.23c.45-1.08.2-2.33-.63-3.15l-23.47-23.4c-.83-.83-2.08-1.08-3.16-.63-1.09.45-1.79,1.5-1.79,2.67v23.4c0,.76.31,1.51.85,2.05.54.54,1.29.85,2.05.85h23.47c1.17,0,2.23-.71,2.68-1.79ZM34.43,82.23v-13.52l13.56,13.52h-13.56Z"/>
</svg>