<?xml version="1.0" encoding="UTF-8"?>
<svg id="Layer_1" data-name="Layer 1" xmlns="http://www.w3.org/2000/svg" viewBox="0 0 110 110">
  <defs>
    <style>
      .cls-1 {
        fill: #4aa4ed;
      }
    </style>
  </defs>
  <path class="cls-1" d="M57.3,83.37c-.7,0-1.39-.27-1.91-.79l-28-27.98c-.92-.92-1.05-2.38-.3-3.45.18-.25.37-.51.58-.78,4.72-6.53,10-12.63,15.67-18.1.98-.94,1.95-1.85,2.93-2.74,1.75-1.58,3.57-3.14,5.44-4.64.05-.04.1-.08.15-.11C79.39,2.62,105.95.13,107.07.03c.8-.06,1.57.22,2.14.78s.85,1.34.78,2.14c-.16,1.89-4.5,46.68-51.12,79.92-.47.34-1.02.5-1.57.5ZM32.84,52.42l24.74,24.72C93.29,50.75,102.13,16.7,104.1,5.92c-7.92,1.43-28.38,6.53-49.01,23.17-.05.04-.1.08-.15.11-1.73,1.4-3.43,2.86-5.06,4.32-.94.85-1.87,1.73-2.81,2.63-5.1,4.92-9.89,10.39-14.23,16.27Z"/>
  <path class="cls-1" d="M11,62.56c-.72,0-1.4-.28-1.91-.79L.79,53.48c-.85-.84-1.03-2.15-.46-3.19,11.89-21.84,34.28-23.58,45.66-17.88.8.4,1.35,1.17,1.47,2.06.12.89-.21,1.77-.88,2.37-.78.7-1.56,1.42-2.34,2.16-4.51,4.32-8.64,9.23-12.28,14.6-.17.23-.28.4-.39.56-.55.85-1.53,1.32-2.54,1.21-8.86-.91-16.02,6.31-16.09,6.38-.5.52-1.2.81-1.92.82h-.02ZM6.06,51.13l5.05,5.05c3.05-2.45,9.22-6.48,16.83-6.27,3.49-5.08,7.46-9.82,11.77-14.05-8.72-2.15-23.98-.7-33.65,15.27Z"/>
  <path class="cls-1" d="M58.44,109.98c-.7,0-1.39-.27-1.91-.79l-8.3-8.3c-.51-.51-.8-1.21-.79-1.93,0-.72.3-1.41.82-1.91h0c.07-.07,7.29-7.22,6.38-16.08-.1-1,.37-1.98,1.21-2.53.16-.11.33-.22.5-.34,5.44-3.68,10.36-7.8,14.68-12.32.74-.77,1.46-1.55,2.16-2.34.59-.67,1.48-.99,2.37-.88.89.12,1.66.67,2.06,1.47,5.7,11.37,3.96,33.74-17.89,45.63-.41.22-.85.33-1.29.33ZM53.84,98.87l5.05,5.05c15.98-9.66,17.43-24.91,15.28-33.63-4.22,4.3-8.94,8.25-14.06,11.77.18,7.61-3.82,13.77-6.27,16.82Z"/>
  <path class="cls-1" d="M68.51,54.02c-3.21,0-6.42-1.22-8.86-3.66-4.88-4.88-4.88-12.82,0-17.7,2.37-2.36,5.51-3.67,8.86-3.67s6.49,1.3,8.86,3.67c4.88,4.88,4.88,12.82,0,17.7h0c-2.44,2.44-5.65,3.66-8.86,3.66ZM68.51,34.38c-1.9,0-3.7.74-5.04,2.09-2.78,2.78-2.78,7.3,0,10.08,2.78,2.78,7.3,2.78,10.09,0,2.78-2.78,2.78-7.3,0-10.08-1.35-1.35-3.14-2.09-5.04-2.09ZM75.46,48.46h.02-.02Z"/>
  <path class="cls-1" d="M12.04,100.64c-.7,0-1.39-.28-1.91-.79-.72-.72-.97-1.78-.65-2.75l6.11-18.5c1.37-4.15,4.73-7.23,8.99-8.24,4.26-1.01,8.64.23,11.74,3.32,3.09,3.09,4.34,7.47,3.33,11.73-1.01,4.25-4.09,7.61-8.25,8.98h0l-18.51,6.11c-.28.09-.56.14-.85.14ZM27.49,75.41c-.55,0-1.11.06-1.66.2-2.42.57-4.33,2.33-5.11,4.69l-4.43,13.41,13.42-4.43c2.36-.78,4.12-2.69,4.69-5.11s-.13-4.91-1.89-6.67c-1.36-1.35-3.15-2.09-5.01-2.09ZM30.55,91.83h.02-.02Z"/>
</svg>