<?xml version="1.0" encoding="UTF-8"?>
<svg id="Layer_1" data-name="Layer 1" xmlns="http://www.w3.org/2000/svg" viewBox="0 0 110 110">
  <defs>
    <style>
      .cls-1 {
        fill: #f27622;
      }
    </style>
  </defs>
  <path class="cls-1" d="M86.14,109.95H28.08c-5.82,0-11-3.02-13.86-8.09-2.86-5.06-2.78-11.06.22-16.04l28.29-46.96v-20.68c-4.83-.14-8.71-4.11-8.71-8.97S38.05.24,43,.24h28.23c4.95,0,8.98,4.03,8.98,8.98s-3.88,8.83-8.71,8.97v20.68l28.29,46.96c3,4.98,3.09,10.98.22,16.04-2.86,5.06-8.04,8.09-13.86,8.09ZM43,6.24c-1.64,0-2.98,1.33-2.98,2.98s1.33,2.98,2.98,2.98h2.74c1.66,0,3,1.34,3,3v24.51c0,.55-.15,1.08-.43,1.55l-28.72,47.67c-1.87,3.1-1.92,6.84-.14,10,1.78,3.16,5.01,5.04,8.63,5.04h58.07c3.62,0,6.85-1.88,8.63-5.04,1.78-3.15,1.73-6.89-.14-9.99l-28.72-47.67c-.28-.47-.43-1-.43-1.55V15.19c0-1.66,1.34-3,3-3h2.73c1.64,0,2.98-1.33,2.98-2.98s-1.33-2.98-2.98-2.98h-28.23Z"/>
  <path class="cls-1" d="M81.66,80.25c-2.4,0-4.71-.31-6.92-.94-5.43-1.53-8.98-4.53-12.12-7.17-3.36-2.83-6.02-5.07-10.32-5.07h-.03c-2.71,0-4.36.85-6.46,1.92-2.45,1.25-5.24,2.67-9.64,2.54-2.5-.07-5.02-.64-7.47-1.69-1.52-.65-2.23-2.42-1.58-3.94.65-1.52,2.42-2.23,3.94-1.58,1.75.75,3.53,1.16,5.28,1.21,2.89.08,4.58-.79,6.74-1.89,2.36-1.2,5.03-2.56,9.17-2.57h.05c6.49,0,10.4,3.3,14.18,6.48,2.93,2.47,5.7,4.8,9.89,5.99,3.82,1.08,7.95.95,12.63-.41,1.6-.46,3.25.46,3.72,2.05.46,1.59-.46,3.26-2.05,3.72-3.12.9-6.13,1.35-9.02,1.35Z"/>
  <path class="cls-1" d="M69.28,18.19h-9.41c-1.66,0-3-1.34-3-3s1.34-3,3-3h9.41c1.66,0,3,1.34,3,3s-1.34,3-3,3Z"/>
  <g>
    <circle class="cls-1" cx="52.81" cy="80.91" r="3"/>
    <circle class="cls-1" cx="33.86" cy="90.12" r="3"/>
    <circle class="cls-1" cx="78.59" cy="90.12" r="3"/>
    <circle class="cls-1" cx="55" cy="49.65" r="3"/>
  </g>
</svg>