<?xml version="1.0" encoding="UTF-8"?>
<svg id="ELEMENTS" xmlns="http://www.w3.org/2000/svg" viewBox="0 0 500 500">
  <defs>
    <style>
      .cls-1 {
        fill: #fff;
      }

      .cls-2 {
        fill: #f9633b;
      }
    </style>
  </defs>
  <circle class="cls-2" cx="250" cy="250" r="250"/>
  <path class="cls-1" d="M106.69,244.1s125.07-51.33,168.44-69.4c16.63-7.23,73.01-30.36,73.01-30.36,0,0,26.03-10.12,23.86,14.46-.72,10.12-6.51,45.54-12.29,83.86-8.68,54.22-18.07,113.5-18.07,113.5,0,0-1.45,16.63-13.74,19.52-12.29,2.89-32.53-10.12-36.15-13.01-2.89-2.17-54.22-34.7-73.01-50.6-5.06-4.34-10.84-13.01.72-23.13,26.03-23.86,57.11-53.5,75.91-72.29,8.68-8.68,17.35-28.92-18.79-4.34-51.33,35.42-101.93,68.68-101.93,68.68,0,0-11.57,7.23-33.25.72-21.69-6.51-46.99-15.18-46.99-15.18,0,0-17.35-10.84,12.29-22.41h0Z"/>
</svg>