<?xml version="1.0" encoding="UTF-8"?>
<svg id="ELEMENTS" xmlns="http://www.w3.org/2000/svg" viewBox="0 0 500 500">
  <defs>
    <style>
      .cls-1 {
        fill: #fff;
      }

      .cls-2 {
        fill: #f9633b;
      }
    </style>
  </defs>
  <circle class="cls-2" cx="250" cy="250" r="250"/>
  <path class="cls-1" d="M357.93,223.2h-.04c-2.3.22-4.61.34-6.92.35-25.33,0-48.95-12.76-62.82-33.95v115.61c0,47.19-38.26,85.45-85.45,85.45s-85.45-38.26-85.45-85.45,38.26-85.45,85.45-85.45c1.78,0,3.53.16,5.28.27v42.11c-1.76-.21-3.48-.53-5.28-.53-24.08,0-43.61,19.53-43.61,43.61s19.53,43.61,43.61,43.61,45.37-18.98,45.37-43.07l.42-196.35h40.29c3.8,36.12,32.93,64.34,69.16,66.99v46.8Z"/>
</svg>