<?xml version="1.0" encoding="UTF-8"?>
<svg id="ELEMENTS" xmlns="http://www.w3.org/2000/svg" viewBox="0 0 500 500">
  <defs>
    <style>
      .cls-1 {
        fill: #fff;
      }

      .cls-2 {
        fill: #f9633b;
      }
    </style>
  </defs>
  <circle class="cls-2" cx="250" cy="250" r="250"/>
  <g>
    <path class="cls-1" d="M184.24,340.54c-21.51-6.35-43.4-25.89-52.63-46.36-12.66-28.07-12.7-102.93,1.74-130.22,23.75-44.85,67.07-48.83,112.81-49.51,47.88-.72,98.65,2.24,123.14,50.5,13.96,27.52,13.75,101.77.98,129.75-8.85,19.38-31.9,40.4-52.47,46.14-26.4,7.37-57.96,7.02-85.19,6.59l-27.43,28.7c-4.47,4.96-13.3,5.47-17.85.37-5.72-6.41-1.81-27.36-3.1-35.96ZM194.07,319.33l.09,45.8c.06,1.48.81,4.21,2.66,4.2l44.4-44.4c36.01-2.96,73.67,3.15,99.33-27.34,16.51-19.62,17.26-60.11,15.19-84.92-2.38-28.48-8.16-49.96-34.65-64.71-23.16-12.9-85.39-11.28-112.01-7.62-23.21,3.18-41.14,11.31-53.43,32.28-12.98,22.14-11.23,78.68-5.22,103.53,4.89,20.23,24.13,37.25,43.65,43.2Z"/>
    <path class="cls-1" d="M205.38,172.22c4.58-.64,6.9,2.14,9.67,5.15,4.58,4.99,16.7,21.18,16.27,27.6-.65,9.63-13.94,8.79-11.14,20.34,3.57,14.73,24.51,38.3,40.35,38.58,9.38.17,9.08-12.23,19.73-11.47,4.59.33,27.05,16.52,29.37,20.75,4.01,7.33-5.04,17.84-10.83,22.09-10.47,7.69-14.63,4.56-25.48-.18-36.13-15.79-61.84-39.1-79.55-74.44-2.33-4.65-10.06-21.22-10.07-25.44-.01-8.24,13.7-21.87,21.68-22.99Z"/>
    <path class="cls-1" d="M245.95,171.13c-2.22-2.14.8-6.01,3.41-6.52,1.27-.25,7.83.49,9.59.72,31.87,4.17,52.86,28.82,55.83,60.22.35,3.68,2,13.27-3.99,12.38-4.92-.73-3.86-13.98-4.54-18.26-3.66-23.08-22.05-41.8-45-46.02-3.44-.63-13.01-.31-15.3-2.52Z"/>
    <path class="cls-1" d="M253.9,181.29c.79-.2,6.6.63,7.96.86,21.16,3.52,37.03,21.77,37.07,43.41.01,6.34-6.99,9.01-8.32-.09-2.14-14.58-4.8-25.76-19.81-32.53-4.15-1.87-17.14-3.62-18.64-4.87-2.28-1.89-.82-6.12,1.75-6.77Z"/>
    <path class="cls-1" d="M281.23,224.98c-1.52,1.55-4.78.72-5.94-.9-2.74-3.82,0-11.1-7.14-15.61-2.5-1.58-18.02-2.98-11.07-8.78,4.28-3.57,15.58,1.76,19.06,5.34,3.33,3.42,8.71,16.28,5.09,19.95Z"/>
  </g>
</svg>